<svg xmlns="http://www.w3.org/2000/svg" width="860" height="800" viewBox="0 0 860 800"><rect width="860" height="800" fill="#172333"/><g font-family="sans-serif" fill="#e0f4ee"><text x="44" y="42" font-size="26">03 · 蘑菇洞穴 / 800m</text><text x="44" y="68" font-size="14">40 × 40m · 固定16 × 16m矿口 · 出生视角向上</text><rect x="120.0" y="105.0" width="600" height="600" rx="3" fill="#55566f"/><rect x="129.0" y="114.0" width="582.0" height="582.0" rx="3" fill="#526f72"/><rect x="300.0" y="285.0" width="240" height="240" rx="3" fill="#223745"/><text x="420" y="405" text-anchor="middle" font-size="16">8 × 8 格矿口</text><text x="420" y="430.5" text-anchor="middle" font-size="13">垂直净空</text><rect x="126.75" y="135.0" width="67.5" height="420" rx="3" fill="#729485"/><circle cx="165" cy="195" r="30" fill="#57a89b" stroke="#c0efe0" stroke-width="1.5"/><circle cx="165" cy="300" r="30" fill="#8b74ab" stroke="#c0efe0" stroke-width="1.5"/><circle cx="165" cy="450" r="30" fill="#57a89b" stroke="#c0efe0" stroke-width="1.5"/><rect x="180.0" y="525.0" width="120" height="120" rx="3" fill="#586371"/><circle cx="240" cy="547.5" r="46.5" fill="#8b74ab" stroke="#c0efe0" stroke-width="1.5"/><circle cx="240" cy="585" r="27.0" fill="#d4b87f" stroke="#c0efe0" stroke-width="1.5"/><text x="240" y="645" text-anchor="middle" font-size="16">售卖</text><rect x="645.75" y="135.0" width="67.5" height="420" rx="3" fill="#729485"/><circle cx="675" cy="195" r="30" fill="#57a89b" stroke="#c0efe0" stroke-width="1.5"/><circle cx="675" cy="300" r="30" fill="#8b74ab" stroke="#c0efe0" stroke-width="1.5"/><circle cx="675" cy="450" r="30" fill="#57a89b" stroke="#c0efe0" stroke-width="1.5"/><rect x="540.0" y="525.0" width="120" height="120" rx="3" fill="#586371"/><circle cx="600" cy="547.5" r="46.5" fill="#57a89b" stroke="#c0efe0" stroke-width="1.5"/><circle cx="600" cy="585" r="27.0" fill="#82cdb9" stroke="#c0efe0" stroke-width="1.5"/><text x="600" y="645" text-anchor="middle" font-size="16">升级</text><circle cx="393.0" cy="165" r="78.0" fill="#8970ae" stroke="#c0efe0" stroke-width="1.5"/><circle cx="495" cy="153.0" r="46.5" fill="#57a89b" stroke="#c0efe0" stroke-width="1.5"/><text x="420" y="172.5" text-anchor="middle" font-size="15">巨型菌伞</text><rect x="345.0" y="540.0" width="150" height="120" rx="3" fill="#a0a594"/><text x="420" y="585" text-anchor="middle" font-size="16">到达</text><text x="420" y="615" text-anchor="middle" font-size="28">↑</text><text x="44" y="761" font-size="15">侧道净宽约6m；柜台、标识、触发点使用同一锚点。</text></g></svg>